<svg width="101" height="100" viewBox="0 0 101 100" fill="none" xmlns="http://www.w3.org/2000/svg">
<g clip-path="url(#clip0_13_104)">
<path fill-rule="evenodd" clip-rule="evenodd" d="M60.4033 1.57211C54.0444 0.270351 47.6161 0.261535 41.451 1.41134C41.249 5.44447 38.7524 9.18714 34.757 10.7835C34.6547 10.8244 34.5525 10.8656 34.4505 10.9073C30.4676 12.5344 26.0717 11.5766 23.125 8.81548C17.8914 12.2711 13.2733 16.7429 9.60337 22.0966C12.3147 25.0911 13.197 29.5045 11.5002 33.4597C11.4783 33.5108 11.4564 33.5619 11.4347 33.6132C11.413 33.6644 11.3914 33.7156 11.3698 33.7668C9.70337 37.7349 5.91573 40.1662 1.87827 40.2956C0.576504 46.6549 0.567688 53.0832 1.71749 59.2483C5.75062 59.4499 9.49329 61.9468 11.0896 65.9421C11.1305 66.0445 11.1718 66.1468 11.2134 66.2487C12.8406 70.2317 11.8827 74.6274 9.12163 77.5743C12.5772 82.8076 17.0491 87.4259 22.4028 91.0956C25.3972 88.3844 29.8106 87.5022 33.7659 89.1991C33.8169 89.2208 33.8681 89.2425 33.9193 89.2646C33.9705 89.2863 34.0217 89.3076 34.0729 89.3293C38.0411 90.9956 40.4723 94.7832 40.6021 98.8208C46.961 100.123 53.3893 100.131 59.5545 98.9817C59.756 94.9483 62.2529 91.2057 66.2483 89.6096C66.3506 89.5685 66.4529 89.5274 66.5548 89.4855C70.5378 87.8584 74.9335 88.8166 77.8804 91.5774C83.1142 88.122 87.732 83.6499 91.4017 78.2964C88.6905 75.3018 87.8083 70.8887 89.5052 66.9332C89.5269 66.8821 89.549 66.8309 89.5707 66.7797C89.5924 66.7286 89.6138 66.6774 89.6355 66.6263C91.3021 62.658 95.0897 60.227 99.1269 60.0972C100.429 53.7383 100.438 47.31 99.2878 41.1449C95.2548 40.9429 91.5118 38.4463 89.9157 34.4509C89.8746 34.3485 89.8335 34.2464 89.7917 34.1444C88.1645 30.1614 89.1227 25.7656 91.8835 22.8188C88.4281 17.5852 83.9564 12.9672 78.6025 9.29722C75.6079 12.0085 71.1948 12.8908 67.2393 11.194C67.1882 11.1721 67.1374 11.1503 67.0859 11.1285C67.0347 11.1068 66.9835 11.0852 66.9324 11.0637C62.9642 9.39722 60.5331 5.60958 60.4033 1.57211Z" fill="url(#paint0_radial_13_104)"/>
<path fill-rule="evenodd" clip-rule="evenodd" d="M53.0193 0.634465V21.7055H48.3682V0.618449C49.9118 0.550923 51.4638 0.555608 53.0193 0.634465Z" fill="white"/>
</g>
<defs>
<radialGradient id="paint0_radial_13_104" cx="0" cy="0" r="1" gradientUnits="userSpaceOnUse" gradientTransform="translate(49.3347 50.9638) rotate(-171.55) scale(52.4574)">
<stop stop-color="#B8B8B8"/>
<stop offset="0.0001"/>
<stop offset="0.784942"/>
<stop offset="0.993084" stop-color="#666666"/>
</radialGradient>
<clipPath id="clip0_13_104">
<rect width="99.6124" height="100" fill="white" transform="translate(0.693848)"/>
</clipPath>
</defs>
</svg>
